<svg xmlns="http://www.w3.org/2000/svg" viewBox="0 0 567.52 300" style="fill:#36383a; stroke-width: 1;">
    <defs>
        <style>
            .cls-1 {
                stroke: #000;
                stroke-miterlimit: 10;
                stroke-width: 15px;
            }
        </style>
    </defs>
    <title>GO</title>
    <g id="Layer_2" data-name="Layer 2">
      <path style="stroke: #f2f2f2; fill-opacity: 0.8" class="cls-1" d="M146.2,130.62H256.78v123.5q-20.14,16.35-50.16,27.36t-66.12,11q-33.82,0-58.71-10.07t-41.42-28.5q-16.53-18.42-24.7-44.46T7.5,151.52q0-33.81,8.93-60.61T42.08,45.69A110.62,110.62,0,0,1,83.31,17.38q24.51-9.87,56.05-9.88,27.36,0,47.5,7.22t34.2,19.38a88.14,88.14,0,0,1,21.85,28.12,124.77,124.77,0,0,1,10.83,33.44l-73,7.22q-4.18-17.47-14.06-25.65T138.6,69.06q-28.5,0-42,20.14T83.12,149.62q0,40.66,14.63,61T147,230.94q24.31,0,42.56-9.88V189.52H146.2Z" />
      <path style="stroke: #f2f2f2; fill-opacity: 0.8" class="cls-1" d="M427.4,7.5q31.92,0,56.62,9.88A113.24,113.24,0,0,1,525.63,45.5Q542.54,63.74,551.28,90t8.74,58.9q0,33.06-8.93,59.66t-26,45.22a113.87,113.87,0,0,1-42.18,28.69Q457.8,292.5,425.5,292.5q-31.92,0-56.62-9.88a113,113,0,0,1-41.61-28.12Q310.35,236.26,301.62,210t-8.74-58.9q0-33.06,8.93-59.66t26-45.22A114.11,114.11,0,0,1,370,17.57Q395.1,7.5,427.4,7.5ZM368.5,150q0,39.15,14.44,59.47t43.7,20.33q29.25,0,43.51-20.33T484.4,150q0-39.14-14.25-59.47T426.64,70.2q-29.26,0-43.7,20.33T368.5,150Z" />
    </g>
</svg>
