<svg xmlns="http://www.w3.org/2000/svg" viewBox="0 0 1694.82 307.74">
    <defs>
        <style>
            .cls-1 {
                stroke: #f2f2f2;
                stroke-miterlimit: 10;
                stroke-width: 15px;
                fill: #B3A125;
            }
        </style>
    </defs>
    <title>Winner</title>
    <g id="Layer_2" data-name="Layer 2">
        <g id="Layer_1-2" data-name="Layer 1">
            <path class="cls-1" d="M286.52,198.56,323,7.5h81.18L328.34,300.24H249.62L207.39,112.87,166,300.24H88.08L9.77,7.5H93.41l37.72,191.06,41-189H244.7Z" />
            <path class="cls-1" d="M437.4,7.5h78.72V300.24H437.4Z" />
            <path class="cls-1" d="M570.23,7.5h68.88L744.48,175.19V7.5h74.21V300.24H750.63L644.44,133V300.24H570.23Z" />
            <path class="cls-1" d="M873.22,7.5H942.1l105.37,167.69V7.5h74.21V300.24h-68.06L947.43,133V300.24H873.22Z" />
            <path class="cls-1" d="M1176.21,7.5h209.51V72.28H1252.88V119h124.64V183.8H1252.88v51.66h141.45l-6.56,64.78H1176.21Z" />
            <path class="cls-1" d="M1666.15,100.16q0,27.89-10.66,49t-32.8,34.23l59.86,116.85h-83.23l-48-100.86h-42.64V300.24h-75V7.5H1549.3q34,0,56.58,7.79T1641.76,36a72.75,72.75,0,0,1,18.86,29.72A109.46,109.46,0,0,1,1666.15,100.16Zm-157.44,38.13h38.54q23.77,0,33.42-9.22t9.63-26.45q0-16.4-10.25-25.42t-35.26-9h-36.08Z" />
        </g>
    </g>
</svg>
